<?xml version="1.0" encoding="UTF-8" standalone="no"?>
<svg width="245px" height="50px" viewBox="0 0 245 50" version="1.1" xmlns="http://www.w3.org/2000/svg" xmlns:xlink="http://www.w3.org/1999/xlink" xmlns:sketch="http://www.bohemiancoding.com/sketch/ns">
    <!-- Generator: Sketch 3.3.3 (12081) - http://www.bohemiancoding.com/sketch -->
    <title>Slice 1</title>
    <desc>Created with Sketch.</desc>
    <defs>
        <path id="path-1" d="M18.395,9.888 L13.166,9.888 L13.166,7.926 C13.166,6.711 12.797,5.829 12.068,5.271 C11.33,4.722 10.511,4.443 9.602,4.443 C8.693,4.443 7.883,4.722 7.181,5.271 C6.47,5.829 6.119,6.711 6.119,7.926 L6.119,9.888 L0.818,9.888 L0.818,8.988 C0.818,5.55 1.709,3.255 3.509,2.094 C5.3,0.933 7.28,0.303 9.449,0.195 C11.672,0.195 13.724,0.78 15.587,1.941 C17.459,3.102 18.395,5.451 18.395,8.988 L18.395,9.888"></path>
        <path d="M12.796,6.888 L12.771,6.888 C12.69,5.403 12.33,4.179 11.673,3.261 C10.872,2.253 9.783,1.74 8.415,1.74 C7.101,1.74 6.066,2.271 5.31,3.333 C5.279,3.374 5.25,3.416 5.221,3.458 C5.25,3.416 5.279,3.374 5.31,3.333 C6.066,2.271 7.101,1.74 8.415,1.74 C9.783,1.74 10.872,2.253 11.673,3.261 C12.338,4.184 12.71,5.393 12.796,6.888 M4.212,6.888 L4.196,6.888 C4.266,5.678 4.524,4.67 4.971,3.86 C4.53,4.669 4.285,5.69 4.212,6.888 M4.973,3.857 C5.001,3.808 5.029,3.759 5.057,3.711 C5.029,3.759 5,3.808 4.973,3.857 M5.102,3.639 C5.118,3.613 5.135,3.587 5.152,3.561 C5.135,3.587 5.118,3.612 5.102,3.639 M0.441,1.366 C0.442,1.365 0.442,1.365 0.443,1.364 C0.442,1.365 0.442,1.365 0.441,1.366 M0.531,1.204 C0.538,1.192 0.546,1.179 0.553,1.167 C0.546,1.179 0.539,1.192 0.531,1.204 M0.63,1.035 C0.643,1.012 0.657,0.99 0.67,0.968 C0.657,0.99 0.643,1.012 0.63,1.035 M0.738,0.859 C0.755,0.831 0.773,0.803 0.791,0.775 C0.773,0.803 0.755,0.831 0.738,0.859 M0.85,0.683 C0.873,0.647 0.898,0.612 0.922,0.576 C0.897,0.612 0.874,0.647 0.85,0.683 M0.969,0.506 C0.999,0.464 1.029,0.421 1.059,0.379 C1.029,0.421 0.999,0.464 0.969,0.506 M1.094,0.331 C1.136,0.272 1.18,0.214 1.224,0.156 C1.18,0.214 1.136,0.272 1.094,0.331" id="path-3"></path>
        <path id="path-5" d="M18.964,15.888 L13.796,15.888 C13.71,14.393 13.338,13.184 12.673,12.261 C11.872,11.253 10.783,10.74 9.415,10.74 C8.101,10.74 7.066,11.271 6.31,12.333 C6.279,12.374 6.25,12.416 6.221,12.458 C6.197,12.492 6.174,12.526 6.152,12.561 C6.135,12.587 6.118,12.613 6.102,12.639 C6.087,12.663 6.072,12.687 6.057,12.711 C6.029,12.759 6.001,12.808 5.973,12.857 C5.973,12.858 5.972,12.859 5.971,12.86 C5.524,13.67 5.266,14.678 5.196,15.888 L0.055,15.888 C0.153,13.737 0.614,11.894 1.441,10.366 C1.442,10.365 1.442,10.365 1.443,10.364 C1.472,10.31 1.501,10.257 1.531,10.204 C1.539,10.192 1.546,10.179 1.553,10.167 C1.578,10.122 1.604,10.079 1.63,10.035 C1.643,10.012 1.657,9.99 1.67,9.968 C1.692,9.931 1.715,9.895 1.738,9.859 C1.755,9.831 1.773,9.803 1.791,9.775 C1.81,9.744 1.83,9.714 1.85,9.683 C1.874,9.647 1.897,9.612 1.922,9.576 C1.937,9.553 1.953,9.53 1.969,9.506 C1.999,9.464 2.029,9.421 2.059,9.379 C2.071,9.363 2.082,9.347 2.094,9.331 C2.136,9.272 2.18,9.214 2.224,9.156 C3.736,7.185 5.68,6.195 8.056,6.195 C9.316,6.195 10.432,6.447 11.386,6.96 C12.394,7.563 13.204,8.346 13.816,9.309 L13.816,0.669 L16.39,0.669 C17.092,0.669 17.704,0.93 18.208,1.461 C18.712,1.992 18.964,2.586 18.964,3.243 L18.964,15.888"></path>
        <path id="path-7" d="M18.146,9.888 L12.917,9.888 L12.917,7.926 C12.917,6.711 12.548,5.829 11.819,5.271 C11.081,4.722 10.262,4.443 9.353,4.443 C8.444,4.443 7.634,4.722 6.932,5.271 C6.221,5.829 5.87,6.711 5.87,7.926 L5.87,9.888 L0.569,9.888 L0.569,8.988 C0.569,5.55 1.46,3.255 3.26,2.094 C5.051,0.933 7.031,0.303 9.2,0.195 C11.423,0.195 13.475,0.78 15.338,1.941 C17.21,3.102 18.146,5.451 18.146,8.988 L18.146,9.888"></path>
        <path d="M0.3,0.848 C0.314,0.844 0.327,0.84 0.341,0.835 C0.327,0.839 0.314,0.844 0.3,0.848 M0.389,0.822 C0.911,0.67 1.464,0.548 2.054,0.457 C1.468,0.551 0.913,0.672 0.389,0.822" id="path-9"></path>
        <path id="path-11" d="M17.512,9.888 L2.923,9.888 C3.629,9.46 4.417,9.112 5.3,8.848 C5.314,8.844 5.327,8.839 5.341,8.835 C5.357,8.831 5.373,8.826 5.389,8.822 C5.913,8.672 6.468,8.551 7.054,8.457 C7.306,8.457 7.612,8.421 7.963,8.34 C8.314,8.268 8.719,8.205 9.178,8.151 C11.392,7.854 12.508,7.197 12.508,6.18 C12.508,5.424 12.112,4.929 11.329,4.704 C10.555,4.479 9.835,4.362 9.178,4.362 C8.467,4.362 7.837,4.47 7.279,4.668 C6.721,4.875 6.316,5.253 6.064,5.802 L0.988,5.802 C1.195,4.236 1.897,2.949 3.112,1.941 C4.48,0.78 6.424,0.195 8.944,0.195 C11.77,0.195 13.894,0.681 15.316,1.635 C16.774,2.652 17.512,4.065 17.512,5.883 L17.512,9.888"></path>
        <path id="path-13" d="M6.244,15.888 L0.943,15.888 L0.943,0.741 L3.67,0.741 C4.372,0.741 4.984,0.984 5.488,1.461 C5.992,1.947 6.244,2.532 6.244,3.243 L6.244,15.888"></path>
        <path d="M8.318,9.888 L8.31,9.888 C8.229,8.457 7.959,7.332 7.464,6.558 C6.888,5.649 6.222,5.073 5.457,4.821 C5.346,4.784 5.234,4.752 5.123,4.726 C5.234,4.752 5.346,4.784 5.457,4.821 C6.222,5.073 6.888,5.649 7.464,6.558 C7.964,7.335 8.247,8.447 8.318,9.888 M0.102,9.888 L0.075,9.888 C0.123,8.24 0.524,6.929 1.271,5.953 C0.529,6.929 0.151,8.247 0.102,9.888 M1.299,5.917 C1.315,5.897 1.33,5.877 1.346,5.858 C1.33,5.877 1.315,5.897 1.299,5.917 M1.408,5.782 C1.415,5.773 1.423,5.764 1.431,5.755 C1.423,5.764 1.415,5.773 1.408,5.782 M12.471,5.312 C12.471,5.311 12.471,5.311 12.47,5.31 C12.471,5.31 12.471,5.311 12.471,5.312 M12.347,5.04 C12.339,5.023 12.33,5.006 12.322,4.99 C12.33,5.006 12.339,5.023 12.347,5.04 M4.731,4.652 C4.574,4.631 4.417,4.62 4.26,4.62 C4.417,4.62 4.574,4.631 4.731,4.652 M7.959,0.807 C7.175,0.519 6.345,0.33 5.471,0.241 C6.345,0.33 7.175,0.519 7.959,0.807 M4.499,0.182 C4.417,0.181 4.334,0.18 4.251,0.18 C4.334,0.18 4.417,0.181 4.499,0.182" id="path-15"></path>
        <path id="path-17" d="M19.458,9.888 L14.318,9.888 C14.247,8.447 13.964,7.335 13.464,6.558 C12.888,5.649 12.222,5.073 11.457,4.821 C11.346,4.784 11.234,4.752 11.123,4.726 C10.992,4.694 10.862,4.669 10.731,4.652 C10.574,4.631 10.417,4.62 10.26,4.62 C10.126,4.62 9.992,4.628 9.858,4.643 C9.635,4.669 9.412,4.716 9.189,4.785 C8.433,5.01 7.875,5.298 7.524,5.649 C7.492,5.684 7.461,5.719 7.431,5.755 C7.423,5.764 7.415,5.773 7.408,5.782 C7.387,5.807 7.366,5.832 7.346,5.858 C7.33,5.877 7.315,5.897 7.299,5.917 C7.29,5.929 7.28,5.941 7.271,5.953 C6.524,6.929 6.123,8.24 6.075,9.888 L0.954,9.888 C0.999,8.727 1.179,7.566 1.494,6.414 C1.872,5.046 2.466,3.912 3.276,3.003 C4.59,1.491 6.282,0.591 8.352,0.312 C9.005,0.224 9.638,0.18 10.251,0.18 C10.334,0.18 10.417,0.181 10.499,0.182 C10.829,0.189 11.153,0.208 11.471,0.241 C12.345,0.33 13.175,0.519 13.959,0.807 C15.876,1.563 17.298,2.877 18.198,4.74 C18.241,4.822 18.282,4.906 18.322,4.99 C18.33,5.006 18.339,5.023 18.347,5.04 C18.389,5.129 18.43,5.219 18.47,5.31 C18.471,5.311 18.471,5.311 18.471,5.312 C19.068,6.67 19.387,8.203 19.458,9.888"></path>
        <path d="M2.549,0.888 L2.54,0.888 C2.255,0.762 1.977,0.696 1.706,0.696 C1.621,0.696 1.536,0.703 1.451,0.716 C1.541,0.702 1.631,0.694 1.722,0.694 C1.992,0.694 2.268,0.759 2.549,0.888 M0.965,0.888 L0.911,0.888 C0.999,0.849 1.092,0.813 1.19,0.78 L0.965,0.888" id="path-19"></path>
        <path id="path-21" d="M15.533,15.888 L8.549,15.888 C8.268,15.759 7.992,15.694 7.722,15.694 C7.631,15.694 7.541,15.702 7.451,15.716 C7.363,15.73 7.276,15.751 7.19,15.78 C7.092,15.813 6.999,15.849 6.911,15.888 L0.341,15.888 L0.341,3.468 C0.341,2.712 0.602,2.073 1.133,1.542 C1.664,1.011 2.303,0.741 3.068,0.741 L5.714,0.741 L5.714,11.424 L15.866,0.741 L22.607,0.741 L12.158,11.271 L15.533,15.888"></path>
        <path d="M0.334,3.363 C0.335,3.362 0.335,3.361 0.336,3.359 C0.335,3.361 0.335,3.362 0.334,3.363 M0.368,3.283 C0.39,3.233 0.411,3.183 0.433,3.133 C0.411,3.183 0.39,3.233 0.368,3.283 M0.44,3.117 C0.791,2.329 1.234,1.624 1.772,1.003 C1.236,1.625 0.793,2.33 0.44,3.117 M16.561,2.36 C16.549,2.339 16.538,2.319 16.526,2.298 C16.538,2.319 16.549,2.339 16.561,2.36 M16.467,2.196 C16.445,2.159 16.423,2.121 16.4,2.083 C16.423,2.121 16.445,2.158 16.467,2.196 M16.361,2.019 C16.331,1.971 16.301,1.923 16.271,1.876 C16.301,1.923 16.331,1.971 16.361,2.019 M16.244,1.835 C16.209,1.78 16.172,1.725 16.135,1.671 C16.172,1.725 16.209,1.78 16.244,1.835 M16.122,1.651 C15.947,1.397 15.76,1.154 15.56,0.922 C15.76,1.153 15.947,1.397 16.122,1.651" id="path-23"></path>
        <path d="M18.954,9.888 L0.441,9.888 C0.505,8.169 0.8,6.659 1.334,5.363 C1.335,5.362 1.335,5.361 1.336,5.359 C1.347,5.334 1.358,5.308 1.368,5.283 C1.39,5.233 1.411,5.183 1.433,5.133 C1.435,5.128 1.438,5.123 1.44,5.117 C1.793,4.33 2.236,3.625 2.772,3.003 C4.383,1.131 6.633,0.195 9.513,0.195 C12.546,0.195 14.895,1.104 16.56,2.922 C16.76,3.154 16.947,3.397 17.122,3.651 C17.126,3.658 17.13,3.664 17.135,3.671 C17.172,3.725 17.209,3.78 17.244,3.835 C17.253,3.848 17.262,3.862 17.271,3.876 C17.301,3.923 17.331,3.971 17.361,4.019 C17.374,4.04 17.387,4.062 17.4,4.083 C17.423,4.121 17.445,4.159 17.467,4.196 C17.487,4.23 17.507,4.264 17.526,4.298 C17.538,4.319 17.549,4.339 17.561,4.36 C18.398,5.867 18.86,7.713 18.954,9.888 M5.796,8.682 L13.527,8.682 C13.428,7.323 13.068,6.306 12.465,5.649 C11.808,4.947 10.872,4.596 9.666,4.596 C8.55,4.596 7.641,4.947 6.939,5.649 C6.228,6.36 5.85,7.368 5.796,8.682" id="path-25"></path>
        <path id="path-27" d="M5.973,15.888 L0.672,15.888 L0.672,0.741 L3.399,0.741 C4.101,0.741 4.713,0.984 5.217,1.461 C5.721,1.947 5.973,2.532 5.973,3.243 L5.973,15.888"></path>
        <path id="path-29" d="M1.617,1.888 L1.615,1.888 L0.735,0.385 L1.617,1.888"></path>
        <path id="path-31" d="M12.615,15.888 L0.827,15.888 L0.827,0.741 L3.554,0.741 C4.256,0.741 4.859,0.993 5.372,1.497 C5.876,2.01 6.128,2.586 6.128,3.243 L6.128,14.079 L12.563,6.654 L18.926,6.654 L11.735,14.385 L12.615,15.888"></path>
        <path id="path-33" d="M5.354,9.888 L0.134,9.888 L0.134,3.228 C0.134,2.517 0.368,1.914 0.854,1.41 C1.331,0.906 1.952,0.654 2.708,0.654 L5.354,0.654 L5.354,9.888"></path>
        <path d="M32.039,11.677 C28.876,11.677 25.28,11.461 21.488,11.007 C9.311,9.549 -0.283,6.174 0.05,3.474 C0.279,1.609 5.159,0.554 12.152,0.554 C15.315,0.554 18.911,0.77 22.703,1.224 C34.871,2.682 44.474,6.057 44.141,8.757 C43.912,10.622 39.032,11.677 32.039,11.677 M15.853,1.368 C10.46,1.368 6.694,2.182 6.521,3.618 C6.26,5.706 13.685,8.316 23.09,9.45 C26.019,9.8 28.795,9.966 31.238,9.966 C36.648,9.966 40.424,9.151 40.604,7.713 C40.865,5.625 33.44,3.015 24.026,1.89 C21.088,1.536 18.303,1.368 15.853,1.368" id="path-35"></path>
        <path d="M21.513,8.111 C19.475,8.111 17.156,7.971 14.711,7.676 C6.881,6.74 0.698,4.562 0.914,2.825 C1.063,1.627 4.211,0.947 8.721,0.947 C10.752,0.947 13.06,1.085 15.494,1.376 C23.324,2.321 29.507,4.49 29.291,6.236 C29.142,7.431 26.008,8.111 21.513,8.111 M11.825,1.665 C8.625,1.665 6.392,2.147 6.287,2.996 C6.134,4.238 10.526,5.777 16.088,6.452 C17.811,6.658 19.443,6.755 20.882,6.755 C24.096,6.755 26.341,6.269 26.447,5.417 C26.6,4.184 22.208,2.645 16.646,1.97 C14.913,1.763 13.271,1.665 11.825,1.665" id="path-37"></path>
        <path d="M10.721,3.871 C9.738,3.871 8.62,3.803 7.439,3.66 C3.668,3.21 0.689,2.157 0.797,1.329 C0.865,0.746 2.375,0.42 4.543,0.42 C5.524,0.42 6.64,0.487 7.817,0.627 C11.588,1.077 14.567,2.13 14.459,2.967 C14.391,3.543 12.885,3.871 10.721,3.871 M6.951,0.976 C5.745,0.976 4.9,1.155 4.856,1.473 C4.802,1.932 6.44,2.517 8.528,2.76 C9.183,2.839 9.803,2.876 10.348,2.876 C11.54,2.876 12.37,2.697 12.407,2.382 C12.461,1.914 10.823,1.338 8.735,1.086 C8.095,1.011 7.487,0.976 6.951,0.976" id="path-39"></path>
    </defs>
    <g id="Page-1" stroke="none" stroke-width="1" fill="none" fill-rule="evenodd" sketch:type="MSPage">
        <g id="kundenlokal-2" sketch:type="MSLayerGroup" transform="translate(-90.000000, -152.000000)">
            <g>
                <path d="M146.604,193.482 L147.165,193.482 C147.874,193.482 148.294,193.128 148.294,192.576 C148.294,191.998 147.902,191.708 147.249,191.699 C146.903,191.699 146.707,191.727 146.604,191.745 L146.604,193.482 L146.604,193.482 Z M145.194,190.774 C145.651,190.699 146.333,190.644 147.09,190.644 C148.023,190.644 148.677,190.783 149.125,191.139 C149.499,191.438 149.705,191.876 149.705,192.455 C149.705,193.259 149.135,193.81 148.593,194.006 L148.593,194.033 C149.032,194.211 149.275,194.631 149.434,195.21 C149.63,195.92 149.826,196.741 149.947,196.984 L148.49,196.984 C148.388,196.798 148.238,196.293 148.052,195.519 C147.883,194.733 147.613,194.52 147.034,194.51 L146.604,194.51 L146.604,196.984 L145.194,196.984 L145.194,190.774 L145.194,190.774 Z" id="Fill-1" fill="#51524E" sketch:type="MSShapeGroup"></path>
                <path d="M156.338,194.323 L154.022,194.323 L154.022,195.817 L156.609,195.817 L156.609,196.984 L152.594,196.984 L152.594,190.69 L156.479,190.69 L156.479,191.857 L154.022,191.857 L154.022,193.165 L156.338,193.165 L156.338,194.323" id="Fill-2" fill="#51524E" sketch:type="MSShapeGroup"></path>
                <path d="M164.702,196.695 C164.263,196.845 163.432,197.05 162.601,197.05 C161.452,197.05 160.621,196.76 160.042,196.2 C159.463,195.658 159.145,194.837 159.154,193.912 C159.164,191.82 160.686,190.625 162.75,190.625 C163.562,190.625 164.188,190.783 164.496,190.934 L164.197,192.072 C163.852,191.923 163.422,191.802 162.731,191.802 C161.545,191.802 160.648,192.474 160.648,193.837 C160.648,195.136 161.461,195.901 162.628,195.901 C162.955,195.901 163.217,195.863 163.329,195.808 L163.329,194.491 L162.357,194.491 L162.357,193.38 L164.702,193.38 L164.702,196.695" id="Fill-3" fill="#51524E" sketch:type="MSShapeGroup"></path>
                <path d="M167.675,190.69 L169.104,190.69 L169.104,196.984 L167.675,196.984 L167.675,190.69 Z" id="Fill-4" fill="#51524E" sketch:type="MSShapeGroup"></path>
                <path d="M173.415,193.856 C173.415,195.089 173.994,195.957 174.947,195.957 C175.909,195.957 176.459,195.042 176.459,193.818 C176.459,192.688 175.918,191.718 174.938,191.718 C173.976,191.718 173.415,192.633 173.415,193.856 L173.415,193.856 Z M177.963,193.771 C177.963,195.836 176.712,197.087 174.872,197.087 C173.004,197.087 171.912,195.677 171.912,193.884 C171.912,191.998 173.116,190.588 174.975,190.588 C176.908,190.588 177.963,192.035 177.963,193.771 L177.963,193.771 Z" id="Fill-5" fill="#51524E" sketch:type="MSShapeGroup"></path>
                <path d="M180.759,196.984 L180.759,190.69 L182.421,190.69 L183.729,192.997 C184.102,193.66 184.476,194.444 184.756,195.154 L184.784,195.154 C184.69,194.323 184.662,193.473 184.662,192.521 L184.662,190.69 L185.97,190.69 L185.97,196.984 L184.476,196.984 L183.131,194.557 C182.757,193.884 182.347,193.071 182.038,192.334 L182.01,192.343 C182.048,193.174 182.066,194.062 182.066,195.089 L182.066,196.984 L180.759,196.984" id="Fill-6" fill="#51524E" sketch:type="MSShapeGroup"></path>
                <path d="M192.127,194.305 L191.735,192.969 C191.623,192.596 191.511,192.129 191.418,191.755 L191.399,191.755 C191.306,192.129 191.212,192.604 191.11,192.969 L190.736,194.305 L192.127,194.305 L192.127,194.305 Z M190.531,195.369 L190.083,196.984 L188.607,196.984 L190.531,190.69 L192.398,190.69 L194.35,196.984 L192.818,196.984 L192.333,195.369 L190.531,195.369 L190.531,195.369 Z" id="Fill-7" fill="#51524E" sketch:type="MSShapeGroup"></path>
                <path d="M197.053,190.69 L198.481,190.69 L198.481,195.789 L200.984,195.789 L200.984,196.984 L197.053,196.984 L197.053,190.69" id="Fill-8" fill="#51524E" sketch:type="MSShapeGroup"></path>
                <path d="M207.433,194.323 L205.117,194.323 L205.117,195.817 L207.704,195.817 L207.704,196.984 L203.688,196.984 L203.688,190.69 L207.573,190.69 L207.573,191.857 L205.117,191.857 L205.117,193.165 L207.433,193.165 L207.433,194.323" id="Fill-9" fill="#51524E" sketch:type="MSShapeGroup"></path>
                <path d="M210.584,195.519 C210.967,195.715 211.556,195.91 212.162,195.91 C212.816,195.91 213.162,195.64 213.162,195.229 C213.162,194.837 212.863,194.612 212.106,194.342 C211.061,193.978 210.379,193.398 210.379,192.483 C210.379,191.409 211.275,190.588 212.76,190.588 C213.47,190.588 213.993,190.737 214.366,190.905 L214.049,192.054 C213.797,191.933 213.349,191.755 212.732,191.755 C212.116,191.755 211.817,192.035 211.817,192.362 C211.817,192.764 212.172,192.94 212.984,193.249 C214.096,193.66 214.618,194.239 214.618,195.126 C214.618,196.182 213.807,197.087 212.078,197.087 C211.359,197.087 210.65,196.891 210.295,196.695 L210.584,195.519" id="Fill-10" fill="#51524E" sketch:type="MSShapeGroup"></path>
                <path d="M222.409,193.856 C222.409,195.089 222.988,195.957 223.941,195.957 C224.902,195.957 225.454,195.042 225.454,193.818 C225.454,192.688 224.912,191.718 223.932,191.718 C222.97,191.718 222.409,192.633 222.409,193.856 L222.409,193.856 Z M226.957,193.771 C226.957,195.836 225.706,197.087 223.866,197.087 C221.998,197.087 220.906,195.677 220.906,193.884 C220.906,191.998 222.11,190.588 223.969,190.588 C225.902,190.588 226.957,192.035 226.957,193.771 L226.957,193.771 Z" id="Fill-11" fill="#51524E" sketch:type="MSShapeGroup"></path>
                <path d="M229.753,196.984 L229.753,190.69 L231.415,190.69 L232.723,192.997 C233.096,193.66 233.47,194.444 233.75,195.154 L233.778,195.154 C233.685,194.323 233.656,193.473 233.656,192.521 L233.656,190.69 L234.964,190.69 L234.964,196.984 L233.47,196.984 L232.125,194.557 C231.752,193.884 231.341,193.071 231.032,192.334 L231.004,192.343 C231.042,193.174 231.061,194.062 231.061,195.089 L231.061,196.984 L229.753,196.984" id="Fill-12" fill="#51524E" sketch:type="MSShapeGroup"></path>
                <path d="M238.059,190.69 L239.487,190.69 L239.487,195.789 L241.99,195.789 L241.99,196.984 L238.059,196.984 L238.059,190.69" id="Fill-13" fill="#51524E" sketch:type="MSShapeGroup"></path>
                <path d="M244.693,190.69 L246.122,190.69 L246.122,196.984 L244.693,196.984 L244.693,190.69 Z" id="Fill-14" fill="#51524E" sketch:type="MSShapeGroup"></path>
                <path d="M249.22,196.984 L249.22,190.69 L250.882,190.69 L252.189,192.997 C252.563,193.66 252.937,194.444 253.217,195.154 L253.245,195.154 C253.151,194.323 253.123,193.473 253.123,192.521 L253.123,190.69 L254.431,190.69 L254.431,196.984 L252.937,196.984 L251.592,194.557 C251.219,193.884 250.808,193.071 250.499,192.334 L250.471,192.343 C250.509,193.174 250.527,194.062 250.527,195.089 L250.527,196.984 L249.22,196.984" id="Fill-15" fill="#51524E" sketch:type="MSShapeGroup"></path>
                <path d="M261.271,194.323 L258.954,194.323 L258.954,195.817 L261.541,195.817 L261.541,196.984 L257.525,196.984 L257.525,190.69 L261.41,190.69 L261.41,191.857 L258.954,191.857 L258.954,193.165 L261.271,193.165 L261.271,194.323" id="Fill-16" fill="#51524E" sketch:type="MSShapeGroup"></path>
                <path d="M273.449,194.575 C273.421,193.818 273.393,192.903 273.393,191.988 L273.365,191.988 C273.169,192.791 272.907,193.688 272.664,194.426 L271.898,196.882 L270.787,196.882 L270.115,194.454 C269.91,193.707 269.695,192.811 269.546,191.988 L269.527,191.988 C269.489,192.838 269.462,193.81 269.415,194.594 L269.303,196.984 L267.986,196.984 L268.388,190.69 L270.283,190.69 L270.899,192.791 C271.096,193.511 271.292,194.305 271.432,195.042 L271.46,195.042 C271.638,194.313 271.853,193.482 272.058,192.782 L272.729,190.69 L274.588,190.69 L274.934,196.984 L273.542,196.984 L273.449,194.575" id="Fill-17" fill="#51524E" sketch:type="MSShapeGroup"></path>
                <path d="M280.924,194.305 L280.531,192.969 C280.419,192.596 280.307,192.129 280.214,191.755 L280.195,191.755 C280.102,192.129 280.008,192.604 279.905,192.969 L279.532,194.305 L280.924,194.305 L280.924,194.305 Z M279.326,195.369 L278.878,196.984 L277.403,196.984 L279.326,190.69 L281.194,190.69 L283.146,196.984 L281.614,196.984 L281.129,195.369 L279.326,195.369 L279.326,195.369 Z" id="Fill-18" fill="#51524E" sketch:type="MSShapeGroup"></path>
                <path d="M287.259,193.482 L287.819,193.482 C288.529,193.482 288.949,193.128 288.949,192.576 C288.949,191.998 288.557,191.708 287.903,191.699 C287.558,191.699 287.361,191.727 287.259,191.745 L287.259,193.482 L287.259,193.482 Z M285.849,190.774 C286.307,190.699 286.988,190.644 287.744,190.644 C288.679,190.644 289.332,190.783 289.78,191.139 C290.153,191.438 290.359,191.876 290.359,192.455 C290.359,193.259 289.789,193.81 289.248,194.006 L289.248,194.033 C289.687,194.211 289.93,194.631 290.088,195.21 C290.284,195.92 290.48,196.741 290.602,196.984 L289.146,196.984 C289.043,196.798 288.893,196.293 288.706,195.519 C288.538,194.733 288.268,194.52 287.688,194.51 L287.259,194.51 L287.259,196.984 L285.849,196.984 L285.849,190.774 L285.849,190.774 Z" id="Fill-19" fill="#51524E" sketch:type="MSShapeGroup"></path>
                <path d="M293.249,190.69 L294.659,190.69 L294.659,193.473 L294.688,193.473 C294.827,193.23 294.977,193.006 295.117,192.782 L296.546,190.69 L298.292,190.69 L296.209,193.37 L298.404,196.984 L296.742,196.984 L295.201,194.267 L294.659,194.93 L294.659,196.984 L293.249,196.984 L293.249,190.69" id="Fill-20" fill="#51524E" sketch:type="MSShapeGroup"></path>
                <path d="M304.591,194.323 L302.274,194.323 L302.274,195.817 L304.861,195.817 L304.861,196.984 L300.846,196.984 L300.846,190.69 L304.73,190.69 L304.73,191.857 L302.274,191.857 L302.274,193.165 L304.591,193.165 L304.591,194.323" id="Fill-21" fill="#51524E" sketch:type="MSShapeGroup"></path>
                <path d="M308.957,191.886 L307.267,191.886 L307.267,190.69 L312.104,190.69 L312.104,191.886 L310.386,191.886 L310.386,196.984 L308.957,196.984 L308.957,191.886" id="Fill-22" fill="#51524E" sketch:type="MSShapeGroup"></path>
                <path d="M314.724,190.69 L316.152,190.69 L316.152,196.984 L314.724,196.984 L314.724,190.69 Z" id="Fill-23" fill="#51524E" sketch:type="MSShapeGroup"></path>
                <path d="M319.249,196.984 L319.249,190.69 L320.911,190.69 L322.219,192.997 C322.592,193.66 322.966,194.444 323.246,195.154 L323.274,195.154 C323.181,194.323 323.152,193.473 323.152,192.521 L323.152,190.69 L324.46,190.69 L324.46,196.984 L322.966,196.984 L321.621,194.557 C321.248,193.884 320.837,193.071 320.528,192.334 L320.5,192.343 C320.538,193.174 320.557,194.062 320.557,195.089 L320.557,196.984 L319.249,196.984" id="Fill-24" fill="#51524E" sketch:type="MSShapeGroup"></path>
                <path d="M332.813,196.695 C332.373,196.845 331.542,197.05 330.711,197.05 C329.563,197.05 328.731,196.76 328.152,196.2 C327.573,195.658 327.256,194.837 327.266,193.912 C327.274,191.82 328.797,190.625 330.86,190.625 C331.673,190.625 332.299,190.783 332.606,190.934 L332.308,192.072 C331.963,191.923 331.533,191.802 330.842,191.802 C329.656,191.802 328.76,192.474 328.76,193.837 C328.76,195.136 329.572,195.901 330.739,195.901 C331.066,195.901 331.327,195.863 331.439,195.808 L331.439,194.491 L330.469,194.491 L330.469,193.38 L332.813,193.38 L332.813,196.695" id="Fill-25" fill="#51524E" sketch:type="MSShapeGroup"></path>
                <path d="M145.341,185.805 L145.341,162.468 C145.341,161.712 145.602,161.073 146.133,160.542 C146.664,160.011 147.303,159.741 148.068,159.741 L150.714,159.741 L150.714,170.424 L160.866,159.741 L167.607,159.741 L157.158,170.271 L168.525,185.805 L162.009,185.805 L155.412,176.562 C154.251,175.05 153.18,174.456 152.19,174.78 C151.209,175.113 150.714,175.725 150.714,176.634 L150.714,185.805 L145.341,185.805" id="Fill-26" fill="#E6752A" sketch:type="MSShapeGroup"></path>
                <path d="M186.354,165.654 L186.354,177.471 C186.354,181.062 185.427,183.411 183.555,184.518 C181.683,185.625 179.64,186.183 177.417,186.183 C175.248,186.084 173.259,185.481 171.468,184.365 C169.677,183.258 168.777,180.954 168.777,177.471 L168.777,165.654 L174.087,165.654 L174.087,178.533 C174.087,179.748 174.438,180.63 175.149,181.188 C175.851,181.737 176.661,182.016 177.57,182.016 C178.479,182.016 179.298,181.737 180.036,181.188 C180.765,180.63 181.134,179.748 181.134,178.533 L181.134,168.228 C181.134,167.517 181.368,166.914 181.854,166.41 C182.331,165.906 182.952,165.654 183.708,165.654 L186.354,165.654" id="Fill-27" fill="#E6752A" sketch:type="MSShapeGroup"></path>
                <path d="M205.146,185.805 L202.491,185.805 C201.735,185.805 201.114,185.562 200.637,185.085 C200.16,184.608 199.917,183.987 199.917,183.231 L199.917,172.926 C199.917,171.711 199.548,170.829 198.819,170.271 C198.081,169.722 197.262,169.443 196.353,169.443 C195.444,169.443 194.634,169.722 193.932,170.271 C193.221,170.829 192.87,171.711 192.87,172.926 L192.87,185.805 L187.569,185.805 L187.569,173.988 C187.569,170.55 188.46,168.255 190.26,167.094 C192.051,165.933 194.031,165.303 196.2,165.195 C198.423,165.195 200.475,165.78 202.338,166.941 C204.21,168.102 205.146,170.451 205.146,173.988 L205.146,185.805" id="Fill-28" fill="#E6752A" sketch:type="MSShapeGroup"></path>
                <path d="M211.176,175.581 C211.176,177.597 211.554,179.136 212.31,180.198 C213.066,181.26 214.155,181.791 215.568,181.791 C216.936,181.791 217.998,181.26 218.754,180.198 C219.456,179.136 219.816,177.597 219.816,175.581 C219.816,173.763 219.438,172.323 218.673,171.261 C217.872,170.253 216.783,169.74 215.415,169.74 C214.101,169.74 213.066,170.271 212.31,171.333 C211.554,172.35 211.176,173.763 211.176,175.581 M219.816,159.669 L222.39,159.669 C223.092,159.669 223.704,159.93 224.208,160.461 C224.712,160.992 224.964,161.586 224.964,162.243 L224.964,177.021 C224.964,180.603 223.929,183.024 221.859,184.293 C219.789,185.553 217.539,186.183 215.118,186.183 C213.804,186.183 212.517,185.967 211.248,185.544 C209.988,185.112 208.98,184.419 208.224,183.456 C206.757,181.593 206.028,179.037 206.028,175.806 C206.028,172.62 206.757,170.073 208.224,168.156 C209.736,166.185 211.68,165.195 214.056,165.195 C215.316,165.195 216.432,165.447 217.386,165.96 C218.394,166.563 219.204,167.346 219.816,168.309 L219.816,159.669" id="Fill-29" fill="#E6752A" sketch:type="MSShapeGroup"></path>
                <path d="M230.796,173.682 L238.527,173.682 C238.428,172.323 238.068,171.306 237.465,170.649 C236.808,169.947 235.872,169.596 234.666,169.596 C233.55,169.596 232.641,169.947 231.939,170.649 C231.228,171.36 230.85,172.368 230.796,173.682 M239.895,179.595 L243.675,179.595 C243.126,181.719 242.064,183.33 240.498,184.446 C238.932,185.607 236.961,186.183 234.585,186.183 C231.705,186.183 229.464,185.247 227.844,183.384 C226.224,181.566 225.423,178.965 225.423,175.581 C225.423,172.35 226.206,169.821 227.772,168.003 C229.383,166.131 231.633,165.195 234.513,165.195 C237.546,165.195 239.895,166.104 241.56,167.922 C243.171,169.794 243.981,172.395 243.981,175.725 L243.981,176.256 L243.981,176.562 C243.981,176.814 243.954,176.994 243.909,177.093 L230.796,177.093 C230.85,178.659 231.228,179.82 231.939,180.576 C232.596,181.386 233.577,181.791 234.891,181.791 C235.746,181.791 236.484,181.611 237.087,181.26 C237.24,181.215 237.375,181.125 237.501,180.999 C237.627,180.873 237.771,180.729 237.924,180.576 C237.969,180.423 238.158,180.225 238.491,179.973 C238.815,179.721 239.283,179.595 239.895,179.595" id="Fill-30" fill="#E6752A" sketch:type="MSShapeGroup"></path>
                <path d="M262.395,185.805 L259.74,185.805 C258.984,185.805 258.363,185.562 257.886,185.085 C257.4,184.608 257.166,183.987 257.166,183.231 L257.166,172.926 C257.166,171.711 256.797,170.829 256.068,170.271 C255.33,169.722 254.511,169.443 253.602,169.443 C252.693,169.443 251.883,169.722 251.181,170.271 C250.47,170.829 250.119,171.711 250.119,172.926 L250.119,185.805 L244.818,185.805 L244.818,173.988 C244.818,170.55 245.709,168.255 247.509,167.094 C249.3,165.933 251.28,165.303 253.449,165.195 C255.672,165.195 257.724,165.78 259.587,166.941 C261.459,168.102 262.395,170.451 262.395,173.988 L262.395,185.805" id="Fill-31" fill="#E6752A" sketch:type="MSShapeGroup"></path>
                <path d="M264.672,159.741 L267.399,159.741 C268.101,159.741 268.713,159.984 269.217,160.461 C269.721,160.947 269.973,161.532 269.973,162.243 L269.973,185.805 L264.672,185.805 L264.672,159.741" id="Fill-32" fill="#3A8DC0" sketch:type="MSShapeGroup"></path>
                <path d="M277.524,170.649 C276.462,171.819 275.976,173.547 276.084,175.842 C276.183,178.137 276.606,179.748 277.371,180.657 C277.677,181.062 278.199,181.395 278.964,181.674 C279.72,181.953 280.485,181.98 281.268,181.755 C282.051,181.521 282.744,180.954 283.356,180.045 C283.959,179.136 284.292,177.678 284.337,175.653 C284.337,173.835 284.049,172.467 283.464,171.558 C282.888,170.649 282.222,170.073 281.457,169.821 C280.701,169.569 279.945,169.551 279.189,169.785 C278.433,170.01 277.875,170.298 277.524,170.649 M273.888,183.987 C272.826,183.078 272.061,181.854 271.611,180.315 C271.152,178.776 270.927,177.165 270.927,175.5 C270.927,174.141 271.116,172.773 271.494,171.414 C271.872,170.046 272.466,168.912 273.276,168.003 C274.59,166.491 276.282,165.591 278.352,165.312 C280.422,165.033 282.294,165.195 283.959,165.807 C285.876,166.563 287.298,167.877 288.198,169.74 C289.062,171.414 289.494,173.358 289.494,175.581 C289.494,177.192 289.314,178.587 288.963,179.748 C288.603,180.909 288.153,181.89 287.595,182.7 C286.38,184.365 284.841,185.4 282.978,185.805 C281.313,186.264 279.63,186.3 277.938,185.922 C276.246,185.544 274.896,184.896 273.888,183.987" id="Fill-33" fill="#3A8DC0" sketch:type="MSShapeGroup"></path>
                <path d="M295.128,165.654 L295.128,173.079 L301.563,165.654 L307.926,165.654 L300.735,173.385 L308.007,185.805 L301.644,185.805 L297.927,178.983 C297.171,177.624 296.514,177.039 295.956,177.246 C295.407,177.444 295.128,177.75 295.128,178.155 L295.128,185.805 L289.827,185.805 L289.827,159.741 L292.554,159.741 C293.256,159.741 293.859,159.993 294.372,160.497 C294.876,161.01 295.128,161.586 295.128,162.243 L295.128,165.654" id="Fill-34" fill="#3A8DC0" sketch:type="MSShapeGroup"></path>
                <path d="M320.58,175.653 C319.878,176.004 318.888,176.337 317.628,176.634 L315.891,177.021 C314.973,177.273 314.316,177.597 313.92,178.002 C313.56,178.56 313.389,179.118 313.389,179.667 C313.389,180.423 313.614,181.035 314.064,181.485 C314.523,181.89 315.18,182.097 316.035,182.097 C317.448,182.097 318.564,181.692 319.374,180.882 C320.175,180.072 320.58,178.965 320.58,177.552 L320.58,175.653 M321.795,184.968 C320.733,185.526 319.608,185.868 318.42,185.994 C317.232,186.12 316.188,186.183 315.279,186.183 C313.461,186.183 311.868,185.688 310.509,184.707 C309.141,183.726 308.466,182.097 308.466,179.82 C308.466,177.696 309.078,176.184 310.32,175.275 C311.553,174.366 313.137,173.763 315.054,173.457 C315.306,173.457 315.612,173.421 315.963,173.34 C316.314,173.268 316.719,173.205 317.178,173.151 C319.392,172.854 320.508,172.197 320.508,171.18 C320.508,170.424 320.112,169.929 319.329,169.704 C318.555,169.479 317.835,169.362 317.178,169.362 C316.467,169.362 315.837,169.47 315.279,169.668 C314.721,169.875 314.316,170.253 314.064,170.802 L308.988,170.802 C309.195,169.236 309.897,167.949 311.112,166.941 C312.48,165.78 314.424,165.195 316.944,165.195 C319.77,165.195 321.894,165.681 323.316,166.635 C324.774,167.652 325.512,169.065 325.512,170.883 L325.512,177.777 C325.512,179.793 325.143,181.377 324.414,182.511 C323.676,183.645 322.803,184.464 321.795,184.968" id="Fill-35" fill="#3A8DC0" sketch:type="MSShapeGroup"></path>
                <path d="M326.943,159.741 L329.67,159.741 C330.372,159.741 330.984,159.984 331.488,160.461 C331.992,160.947 332.244,161.532 332.244,162.243 L332.244,185.805 L326.943,185.805 L326.943,159.741" id="Fill-36" fill="#3A8DC0" sketch:type="MSShapeGroup"></path>
                <g id="Group-39" transform="translate(244.000000, 165.000000)">
                    <mask id="mask-2" sketch:name="Clip 38" fill="white">
                        <use xlink:href="#path-1"></use>
                    </mask>
                    <g id="Clip-38"></g>
                    <path d="M18.395,9.888 L13.166,9.888 L13.166,7.926 C13.166,6.711 12.797,5.829 12.068,5.271 C11.33,4.722 10.511,4.443 9.602,4.443 C8.693,4.443 7.883,4.722 7.181,5.271 C6.47,5.829 6.119,6.711 6.119,7.926 L6.119,9.888 L0.818,9.888 L0.818,8.988 C0.818,5.55 1.709,3.255 3.509,2.094 C5.3,0.933 7.28,0.303 9.449,0.195 C11.672,0.195 13.724,0.78 15.587,1.941 C17.459,3.102 18.395,5.451 18.395,8.988 L18.395,9.888" id="Fill-37" sketch:type="MSShapeGroup" mask="url(#mask-2)"></path>
                </g>
                <g id="Group-42" transform="translate(207.000000, 168.000000)">
                    <mask id="mask-4" sketch:name="Clip 41" fill="white">
                        <use xlink:href="#path-3"></use>
                    </mask>
                    <g id="Clip-41"></g>
                    <path d="M12.796,6.888 L12.771,6.888 C12.69,5.403 12.33,4.179 11.673,3.261 C10.872,2.253 9.783,1.74 8.415,1.74 C7.101,1.74 6.066,2.271 5.31,3.333 C5.279,3.374 5.25,3.416 5.221,3.458 C5.25,3.416 5.279,3.374 5.31,3.333 C6.066,2.271 7.101,1.74 8.415,1.74 C9.783,1.74 10.872,2.253 11.673,3.261 C12.338,4.184 12.71,5.393 12.796,6.888 M4.212,6.888 L4.196,6.888 C4.266,5.678 4.524,4.67 4.971,3.86 C4.53,4.669 4.285,5.69 4.212,6.888 M4.973,3.857 C5.001,3.808 5.029,3.759 5.057,3.711 C5.029,3.759 5,3.808 4.973,3.857 M5.102,3.639 C5.118,3.613 5.135,3.587 5.152,3.561 C5.135,3.587 5.118,3.612 5.102,3.639 M0.441,1.366 C0.442,1.365 0.442,1.365 0.443,1.364 C0.442,1.365 0.442,1.365 0.441,1.366 M0.531,1.204 C0.538,1.192 0.546,1.179 0.553,1.167 C0.546,1.179 0.539,1.192 0.531,1.204 M0.63,1.035 C0.643,1.012 0.657,0.99 0.67,0.968 C0.657,0.99 0.643,1.012 0.63,1.035 M0.738,0.859 C0.755,0.831 0.773,0.803 0.791,0.775 C0.773,0.803 0.755,0.831 0.738,0.859 M0.85,0.683 C0.873,0.647 0.898,0.612 0.922,0.576 C0.897,0.612 0.874,0.647 0.85,0.683 M0.969,0.506 C0.999,0.464 1.029,0.421 1.059,0.379 C1.029,0.421 0.999,0.464 0.969,0.506 M1.094,0.331 C1.136,0.272 1.18,0.214 1.224,0.156 C1.18,0.214 1.136,0.272 1.094,0.331" id="Fill-40" sketch:type="MSShapeGroup" mask="url(#mask-4)"></path>
                </g>
                <g id="Group-45" transform="translate(206.000000, 159.000000)">
                    <mask id="mask-6" sketch:name="Clip 44" fill="white">
                        <use xlink:href="#path-5"></use>
                    </mask>
                    <g id="Clip-44"></g>
                    <path d="M18.964,15.888 L13.796,15.888 C13.71,14.393 13.338,13.184 12.673,12.261 C11.872,11.253 10.783,10.74 9.415,10.74 C8.101,10.74 7.066,11.271 6.31,12.333 C6.279,12.374 6.25,12.416 6.221,12.458 C6.197,12.492 6.174,12.526 6.152,12.561 C6.135,12.587 6.118,12.613 6.102,12.639 C6.087,12.663 6.072,12.687 6.057,12.711 C6.029,12.759 6.001,12.808 5.973,12.857 C5.973,12.858 5.972,12.859 5.971,12.86 C5.524,13.67 5.266,14.678 5.196,15.888 L0.055,15.888 C0.153,13.737 0.614,11.894 1.441,10.366 C1.442,10.365 1.442,10.365 1.443,10.364 C1.472,10.31 1.501,10.257 1.531,10.204 C1.539,10.192 1.546,10.179 1.553,10.167 C1.578,10.122 1.604,10.079 1.63,10.035 C1.643,10.012 1.657,9.99 1.67,9.968 C1.692,9.931 1.715,9.895 1.738,9.859 C1.755,9.831 1.773,9.803 1.791,9.775 C1.81,9.744 1.83,9.714 1.85,9.683 C1.874,9.647 1.897,9.612 1.922,9.576 C1.937,9.553 1.953,9.53 1.969,9.506 C1.999,9.464 2.029,9.421 2.059,9.379 C2.071,9.363 2.082,9.347 2.094,9.331 C2.136,9.272 2.18,9.214 2.224,9.156 C3.736,7.185 5.68,6.195 8.056,6.195 C9.316,6.195 10.432,6.447 11.386,6.96 C12.394,7.563 13.204,8.346 13.816,9.309 L13.816,0.669 L16.39,0.669 C17.092,0.669 17.704,0.93 18.208,1.461 C18.712,1.992 18.964,2.586 18.964,3.243 L18.964,15.888" id="Fill-43" sketch:type="MSShapeGroup" mask="url(#mask-6)"></path>
                </g>
                <g id="Group-48" transform="translate(187.000000, 165.000000)">
                    <mask id="mask-8" sketch:name="Clip 47" fill="white">
                        <use xlink:href="#path-7"></use>
                    </mask>
                    <g id="Clip-47"></g>
                    <path d="M18.146,9.888 L12.917,9.888 L12.917,7.926 C12.917,6.711 12.548,5.829 11.819,5.271 C11.081,4.722 10.262,4.443 9.353,4.443 C8.444,4.443 7.634,4.722 6.932,5.271 C6.221,5.829 5.87,6.711 5.87,7.926 L5.87,9.888 L0.569,9.888 L0.569,8.988 C0.569,5.55 1.46,3.255 3.26,2.094 C5.051,0.933 7.031,0.303 9.2,0.195 C11.423,0.195 13.475,0.78 15.338,1.941 C17.21,3.102 18.146,5.451 18.146,8.988 L18.146,9.888" id="Fill-46" sketch:type="MSShapeGroup" mask="url(#mask-8)"></path>
                </g>
                <g id="Group-51" transform="translate(313.000000, 173.000000)">
                    <mask id="mask-10" sketch:name="Clip 50" fill="white">
                        <use xlink:href="#path-9"></use>
                    </mask>
                    <g id="Clip-50"></g>
                    <path d="M0.3,0.848 C0.314,0.844 0.327,0.84 0.341,0.835 C0.327,0.839 0.314,0.844 0.3,0.848 M0.389,0.822 C0.911,0.67 1.464,0.548 2.054,0.457 C1.468,0.551 0.913,0.672 0.389,0.822" id="Fill-49" sketch:type="MSShapeGroup" mask="url(#mask-10)"></path>
                </g>
                <g id="Group-54" transform="translate(308.000000, 165.000000)">
                    <mask id="mask-12" sketch:name="Clip 53" fill="white">
                        <use xlink:href="#path-11"></use>
                    </mask>
                    <g id="Clip-53"></g>
                    <path d="M17.512,9.888 L2.923,9.888 C3.629,9.46 4.417,9.112 5.3,8.848 C5.314,8.844 5.327,8.839 5.341,8.835 C5.357,8.831 5.373,8.826 5.389,8.822 C5.913,8.672 6.468,8.551 7.054,8.457 C7.306,8.457 7.612,8.421 7.963,8.34 C8.314,8.268 8.719,8.205 9.178,8.151 C11.392,7.854 12.508,7.197 12.508,6.18 C12.508,5.424 12.112,4.929 11.329,4.704 C10.555,4.479 9.835,4.362 9.178,4.362 C8.467,4.362 7.837,4.47 7.279,4.668 C6.721,4.875 6.316,5.253 6.064,5.802 L0.988,5.802 C1.195,4.236 1.897,2.949 3.112,1.941 C4.48,0.78 6.424,0.195 8.944,0.195 C11.77,0.195 13.894,0.681 15.316,1.635 C16.774,2.652 17.512,4.065 17.512,5.883 L17.512,9.888" id="Fill-52" sketch:type="MSShapeGroup" mask="url(#mask-12)"></path>
                </g>
                <g id="Group-57" transform="translate(326.000000, 159.000000)">
                    <mask id="mask-14" sketch:name="Clip 56" fill="white">
                        <use xlink:href="#path-13"></use>
                    </mask>
                    <g id="Clip-56"></g>
                    <path d="M6.244,15.888 L0.943,15.888 L0.943,0.741 L3.67,0.741 C4.372,0.741 4.984,0.984 5.488,1.461 C5.992,1.947 6.244,2.532 6.244,3.243 L6.244,15.888" id="Fill-55" sketch:type="MSShapeGroup" mask="url(#mask-14)"></path>
                </g>
                <g id="Group-60" transform="translate(276.000000, 165.000000)">
                    <mask id="mask-16" sketch:name="Clip 59" fill="white">
                        <use xlink:href="#path-15"></use>
                    </mask>
                    <g id="Clip-59"></g>
                    <path d="M8.318,9.888 L8.31,9.888 C8.229,8.457 7.959,7.332 7.464,6.558 C6.888,5.649 6.222,5.073 5.457,4.821 C5.346,4.784 5.234,4.752 5.123,4.726 C5.234,4.752 5.346,4.784 5.457,4.821 C6.222,5.073 6.888,5.649 7.464,6.558 C7.964,7.335 8.247,8.447 8.318,9.888 M0.102,9.888 L0.075,9.888 C0.123,8.24 0.524,6.929 1.271,5.953 C0.529,6.929 0.151,8.247 0.102,9.888 M1.299,5.917 C1.315,5.897 1.33,5.877 1.346,5.858 C1.33,5.877 1.315,5.897 1.299,5.917 M1.408,5.782 C1.415,5.773 1.423,5.764 1.431,5.755 C1.423,5.764 1.415,5.773 1.408,5.782 M12.471,5.312 C12.471,5.311 12.471,5.311 12.47,5.31 C12.471,5.31 12.471,5.311 12.471,5.312 M12.347,5.04 C12.339,5.023 12.33,5.006 12.322,4.99 C12.33,5.006 12.339,5.023 12.347,5.04 M4.731,4.652 C4.574,4.631 4.417,4.62 4.26,4.62 C4.417,4.62 4.574,4.631 4.731,4.652 M7.959,0.807 C7.175,0.519 6.345,0.33 5.471,0.241 C6.345,0.33 7.175,0.519 7.959,0.807 M4.499,0.182 C4.417,0.181 4.334,0.18 4.251,0.18 C4.334,0.18 4.417,0.181 4.499,0.182" id="Fill-58" sketch:type="MSShapeGroup" mask="url(#mask-16)"></path>
                </g>
                <g id="Group-63" transform="translate(270.000000, 165.000000)">
                    <mask id="mask-18" sketch:name="Clip 62" fill="white">
                        <use xlink:href="#path-17"></use>
                    </mask>
                    <g id="Clip-62"></g>
                    <path d="M19.458,9.888 L14.318,9.888 C14.247,8.447 13.964,7.335 13.464,6.558 C12.888,5.649 12.222,5.073 11.457,4.821 C11.346,4.784 11.234,4.752 11.123,4.726 C10.992,4.694 10.862,4.669 10.731,4.652 C10.574,4.631 10.417,4.62 10.26,4.62 C10.126,4.62 9.992,4.628 9.858,4.643 C9.635,4.669 9.412,4.716 9.189,4.785 C8.433,5.01 7.875,5.298 7.524,5.649 C7.492,5.684 7.461,5.719 7.431,5.755 C7.423,5.764 7.415,5.773 7.408,5.782 C7.387,5.807 7.366,5.832 7.346,5.858 C7.33,5.877 7.315,5.897 7.299,5.917 C7.29,5.929 7.28,5.941 7.271,5.953 C6.524,6.929 6.123,8.24 6.075,9.888 L0.954,9.888 C0.999,8.727 1.179,7.566 1.494,6.414 C1.872,5.046 2.466,3.912 3.276,3.003 C4.59,1.491 6.282,0.591 8.352,0.312 C9.005,0.224 9.638,0.18 10.251,0.18 C10.334,0.18 10.417,0.181 10.499,0.182 C10.829,0.189 11.153,0.208 11.471,0.241 C12.345,0.33 13.175,0.519 13.959,0.807 C15.876,1.563 17.298,2.877 18.198,4.74 C18.241,4.822 18.282,4.906 18.322,4.99 C18.33,5.006 18.339,5.023 18.347,5.04 C18.389,5.129 18.43,5.219 18.47,5.31 C18.471,5.311 18.471,5.311 18.471,5.312 C19.068,6.67 19.387,8.203 19.458,9.888" id="Fill-61" sketch:type="MSShapeGroup" mask="url(#mask-18)"></path>
                </g>
                <g id="Group-66" transform="translate(151.000000, 174.000000)">
                    <mask id="mask-20" sketch:name="Clip 65" fill="white">
                        <use xlink:href="#path-19"></use>
                    </mask>
                    <g id="Clip-65"></g>
                    <path d="M2.549,0.888 L2.54,0.888 C2.255,0.762 1.977,0.696 1.706,0.696 C1.621,0.696 1.536,0.703 1.451,0.716 C1.541,0.702 1.631,0.694 1.722,0.694 C1.992,0.694 2.268,0.759 2.549,0.888 M0.965,0.888 L0.911,0.888 C0.999,0.849 1.092,0.813 1.19,0.78 L0.965,0.888" id="Fill-64" sketch:type="MSShapeGroup" mask="url(#mask-20)"></path>
                </g>
                <g id="Group-69" transform="translate(145.000000, 159.000000)">
                    <mask id="mask-22" sketch:name="Clip 68" fill="white">
                        <use xlink:href="#path-21"></use>
                    </mask>
                    <g id="Clip-68"></g>
                    <path d="M15.533,15.888 L8.549,15.888 C8.268,15.759 7.992,15.694 7.722,15.694 C7.631,15.694 7.541,15.702 7.451,15.716 C7.363,15.73 7.276,15.751 7.19,15.78 C7.092,15.813 6.999,15.849 6.911,15.888 L0.341,15.888 L0.341,3.468 C0.341,2.712 0.602,2.073 1.133,1.542 C1.664,1.011 2.303,0.741 3.068,0.741 L5.714,0.741 L5.714,11.424 L15.866,0.741 L22.607,0.741 L12.158,11.271 L15.533,15.888" id="Fill-67" sketch:type="MSShapeGroup" mask="url(#mask-22)"></path>
                </g>
                <g id="Group-72" transform="translate(226.000000, 167.000000)">
                    <mask id="mask-24" sketch:name="Clip 71" fill="white">
                        <use xlink:href="#path-23"></use>
                    </mask>
                    <g id="Clip-71"></g>
                    <path d="M0.334,3.363 C0.335,3.362 0.335,3.361 0.336,3.359 C0.335,3.361 0.335,3.362 0.334,3.363 M0.368,3.283 C0.39,3.233 0.411,3.183 0.433,3.133 C0.411,3.183 0.39,3.233 0.368,3.283 M0.44,3.117 C0.791,2.329 1.234,1.624 1.772,1.003 C1.236,1.625 0.793,2.33 0.44,3.117 M16.561,2.36 C16.549,2.339 16.538,2.319 16.526,2.298 C16.538,2.319 16.549,2.339 16.561,2.36 M16.467,2.196 C16.445,2.159 16.423,2.121 16.4,2.083 C16.423,2.121 16.445,2.158 16.467,2.196 M16.361,2.019 C16.331,1.971 16.301,1.923 16.271,1.876 C16.301,1.923 16.331,1.971 16.361,2.019 M16.244,1.835 C16.209,1.78 16.172,1.725 16.135,1.671 C16.172,1.725 16.209,1.78 16.244,1.835 M16.122,1.651 C15.947,1.397 15.76,1.154 15.56,0.922 C15.76,1.153 15.947,1.397 16.122,1.651" id="Fill-70" sketch:type="MSShapeGroup" mask="url(#mask-24)"></path>
                </g>
                <g id="Group-75" transform="translate(225.000000, 165.000000)">
                    <mask id="mask-26" sketch:name="Clip 74" fill="white">
                        <use xlink:href="#path-25"></use>
                    </mask>
                    <g id="Clip-74"></g>
                    <path d="M18.954,9.888 L0.441,9.888 C0.505,8.169 0.8,6.659 1.334,5.363 C1.335,5.362 1.335,5.361 1.336,5.359 C1.347,5.334 1.358,5.308 1.368,5.283 C1.39,5.233 1.411,5.183 1.433,5.133 C1.435,5.128 1.438,5.123 1.44,5.117 C1.793,4.33 2.236,3.625 2.772,3.003 C4.383,1.131 6.633,0.195 9.513,0.195 C12.546,0.195 14.895,1.104 16.56,2.922 C16.76,3.154 16.947,3.397 17.122,3.651 C17.126,3.658 17.13,3.664 17.135,3.671 C17.172,3.725 17.209,3.78 17.244,3.835 C17.253,3.848 17.262,3.862 17.271,3.876 C17.301,3.923 17.331,3.971 17.361,4.019 C17.374,4.04 17.387,4.062 17.4,4.083 C17.423,4.121 17.445,4.159 17.467,4.196 C17.487,4.23 17.507,4.264 17.526,4.298 C17.538,4.319 17.549,4.339 17.561,4.36 C18.398,5.867 18.86,7.713 18.954,9.888 M5.796,8.682 L13.527,8.682 C13.428,7.323 13.068,6.306 12.465,5.649 C11.808,4.947 10.872,4.596 9.666,4.596 C8.55,4.596 7.641,4.947 6.939,5.649 C6.228,6.36 5.85,7.368 5.796,8.682" id="Fill-73" sketch:type="MSShapeGroup" mask="url(#mask-26)"></path>
                </g>
                <g id="Group-78" transform="translate(264.000000, 159.000000)">
                    <mask id="mask-28" sketch:name="Clip 77" fill="white">
                        <use xlink:href="#path-27"></use>
                    </mask>
                    <g id="Clip-77"></g>
                    <path d="M5.973,15.888 L0.672,15.888 L0.672,0.741 L3.399,0.741 C4.101,0.741 4.713,0.984 5.217,1.461 C5.721,1.947 5.973,2.532 5.973,3.243 L5.973,15.888" id="Fill-76" sketch:type="MSShapeGroup" mask="url(#mask-28)"></path>
                </g>
                <g id="Group-81" transform="translate(300.000000, 173.000000)">
                    <mask id="mask-30" sketch:name="Clip 80" fill="white">
                        <use xlink:href="#path-29"></use>
                    </mask>
                    <g id="Clip-80"></g>
                    <path d="M1.617,1.888 L1.615,1.888 L0.735,0.385 L1.617,1.888" id="Fill-79" sketch:type="MSShapeGroup" mask="url(#mask-30)"></path>
                </g>
                <g id="Group-84" transform="translate(289.000000, 159.000000)">
                    <mask id="mask-32" sketch:name="Clip 83" fill="white">
                        <use xlink:href="#path-31"></use>
                    </mask>
                    <g id="Clip-83"></g>
                    <path d="M12.615,15.888 L0.827,15.888 L0.827,0.741 L3.554,0.741 C4.256,0.741 4.859,0.993 5.372,1.497 C5.876,2.01 6.128,2.586 6.128,3.243 L6.128,14.079 L12.563,6.654 L18.926,6.654 L11.735,14.385 L12.615,15.888" id="Fill-82" sketch:type="MSShapeGroup" mask="url(#mask-32)"></path>
                </g>
                <path d="M168.777,165.654 L174.087,165.654 L174.087,174.888 L168.777,174.888 L168.777,165.654 Z" id="Fill-85" sketch:type="MSShapeGroup"></path>
                <g id="Group-89" transform="translate(181.000000, 165.000000)">
                    <mask id="mask-34" sketch:name="Clip 88" fill="white">
                        <use xlink:href="#path-33"></use>
                    </mask>
                    <g id="Clip-88"></g>
                    <path d="M5.354,9.888 L0.134,9.888 L0.134,3.228 C0.134,2.517 0.368,1.914 0.854,1.41 C1.331,0.906 1.952,0.654 2.708,0.654 L5.354,0.654 L5.354,9.888" id="Fill-87" sketch:type="MSShapeGroup" mask="url(#mask-34)"></path>
                </g>
                <g id="Group-92" transform="translate(85.000000, 189.000000)">
                    <mask id="mask-36" sketch:name="Clip 91" fill="white">
                        <use xlink:href="#path-35"></use>
                    </mask>
                    <g id="Clip-91"></g>
                    <path d="M32.039,11.677 C28.876,11.677 25.28,11.461 21.488,11.007 C9.311,9.549 -0.283,6.174 0.05,3.474 C0.279,1.609 5.159,0.554 12.152,0.554 C15.315,0.554 18.911,0.77 22.703,1.224 C34.871,2.682 44.474,6.057 44.141,8.757 C43.912,10.622 39.032,11.677 32.039,11.677 M15.853,1.368 C10.46,1.368 6.694,2.182 6.521,3.618 C6.26,5.706 13.685,8.316 23.09,9.45 C26.019,9.8 28.795,9.966 31.238,9.966 C36.648,9.966 40.424,9.151 40.604,7.713 C40.865,5.625 33.44,3.015 24.026,1.89 C21.088,1.536 18.303,1.368 15.853,1.368" id="Fill-90" sketch:type="MSShapeGroup" mask="url(#mask-36)"></path>
                </g>
                <g id="Group-95" transform="translate(94.000000, 190.000000)">
                    <mask id="mask-38" sketch:name="Clip 94" fill="white">
                        <use xlink:href="#path-37"></use>
                    </mask>
                    <g id="Clip-94"></g>
                    <path d="M21.513,8.111 C19.475,8.111 17.156,7.971 14.711,7.676 C6.881,6.74 0.698,4.562 0.914,2.825 C1.063,1.627 4.211,0.947 8.721,0.947 C10.752,0.947 13.06,1.085 15.494,1.376 C23.324,2.321 29.507,4.49 29.291,6.236 C29.142,7.431 26.008,8.111 21.513,8.111 M11.825,1.665 C8.625,1.665 6.392,2.147 6.287,2.996 C6.134,4.238 10.526,5.777 16.088,6.452 C17.811,6.658 19.443,6.755 20.882,6.755 C24.096,6.755 26.341,6.269 26.447,5.417 C26.6,4.184 22.208,2.645 16.646,1.97 C14.913,1.763 13.271,1.665 11.825,1.665" id="Fill-93" sketch:type="MSShapeGroup" mask="url(#mask-38)"></path>
                </g>
                <g id="Group-98" transform="translate(103.000000, 192.000000)">
                    <mask id="mask-40" sketch:name="Clip 97" fill="white">
                        <use xlink:href="#path-39"></use>
                    </mask>
                    <g id="Clip-97"></g>
                    <path d="M10.721,3.871 C9.738,3.871 8.62,3.803 7.439,3.66 C3.668,3.21 0.689,2.157 0.797,1.329 C0.865,0.746 2.375,0.42 4.543,0.42 C5.524,0.42 6.64,0.487 7.817,0.627 C11.588,1.077 14.567,2.13 14.459,2.967 C14.391,3.543 12.885,3.871 10.721,3.871 M6.951,0.976 C5.745,0.976 4.9,1.155 4.856,1.473 C4.802,1.932 6.44,2.517 8.528,2.76 C9.183,2.839 9.803,2.876 10.348,2.876 C11.54,2.876 12.37,2.697 12.407,2.382 C12.461,1.914 10.823,1.338 8.735,1.086 C8.095,1.011 7.487,0.976 6.951,0.976" id="Fill-96" sketch:type="MSShapeGroup" mask="url(#mask-40)"></path>
                </g>
                <path d="M129.52,163.612 L129.46,158.627 L129.875,158.745 L130.409,157.974 L130.646,158.33 L131.419,156.905 L131.775,157.083 L132.546,155.717 L132.961,156.37 L134.03,154.412 L135.099,153.463 L134.979,154.708 L136.167,152.987 L136.761,152.215 L137.176,152.215 L135.395,157.854" id="Fill-99" fill="#51524E" sketch:type="MSShapeGroup"></path>
                <path d="M130.519,164.065 L135.499,164.298 L135.395,163.877 L136.185,163.372 L135.837,163.121 L137.287,162.399 L137.123,162.037 L138.513,161.313 L137.875,160.876 L139.87,159.876 L140.856,158.84 L139.606,158.917 L141.368,157.789 L142.16,157.224 L142.173,156.808 L136.478,158.393" id="Fill-100" fill="#51524E" sketch:type="MSShapeGroup"></path>
                <path d="M132.072,186.107 C131.813,193.679 123.972,196.497 114.56,192.399 C105.148,188.305 97.727,178.849 97.985,171.278 C98.244,163.706 106.084,160.889 115.496,164.983 C124.908,169.079 132.329,178.536 132.072,186.107 L132.072,186.107 Z M114.167,162.586 C101.992,157.29 91.851,160.935 91.517,170.728 C91.181,180.521 100.783,192.755 112.957,198.051 C125.131,203.349 135.273,199.704 135.607,189.91 C135.941,180.118 126.341,167.885 114.167,162.586 L114.167,162.586 Z" id="Fill-101" fill="#E6752A" sketch:type="MSShapeGroup"></path>
                <path d="M116.557,185.148 C110.991,182.726 106.604,177.132 106.757,172.656 C106.909,168.177 111.545,166.511 117.112,168.933 C122.677,171.354 127.066,176.949 126.914,181.426 C126.761,185.901 122.124,187.569 116.557,185.148 L116.557,185.148 Z M115.96,166.782 C108.122,163.373 101.595,165.719 101.38,172.022 C101.165,178.327 107.344,186.202 115.181,189.61 C123.018,193.021 129.544,190.673 129.76,184.371 C129.976,178.067 123.795,170.192 115.96,166.782 L115.96,166.782 Z" id="Fill-102" fill="#3A8DC0" sketch:type="MSShapeGroup"></path>
                <path d="M117.996,179.048 C115.912,178.141 114.269,176.046 114.327,174.371 C114.383,172.694 116.119,172.071 118.203,172.978 C120.288,173.884 121.931,175.979 121.873,177.654 C121.815,179.332 120.081,179.954 117.996,179.048 L117.996,179.048 Z M117.282,171.305 C113.507,169.661 110.362,170.792 110.26,173.828 C110.156,176.863 113.132,180.657 116.906,182.301 C120.683,183.941 123.826,182.814 123.929,179.775 C124.033,176.741 121.057,172.946 117.282,171.305 L117.282,171.305 Z" id="Fill-103" fill="#51524E" sketch:type="MSShapeGroup"></path>
                <path d="M117.903,176.032 L118.454,174.775 L136.57,156.052 L138.088,157.251 L119.093,175.542 L117.903,176.032" id="Fill-104" fill="#51524E" sketch:type="MSShapeGroup"></path>
                <g id="Group-113" fill="#FFFFFF" sketch:type="MSShapeGroup">
                    <path d="M118.483,175.167 L136.718,156.565 L136.561,156.37 L118.519,174.949 L118.483,175.167" id="Fill-105"></path>
                </g>
            </g>
        </g>
    </g>
</svg>